<svg width="84" height="79" viewBox="0 0 84 79" fill="none" xmlns="http://www.w3.org/2000/svg">
<g filter="url(#filter0_d_128_1672)">
<path d="M42 31.1729C39.5422 31.1729 37.5406 33.1744 37.5406 35.6323C37.5406 38.0901 39.5422 40.0916 42 40.0916C44.4578 40.0916 46.4594 38.0901 46.4594 35.6323C46.4594 33.1744 44.4578 31.1729 42 31.1729ZM29.5156 44.4948L28.5313 44.251C21.2062 42.3948 17 39.2541 17 35.6244C17 31.9948 21.2078 28.8541 28.5313 26.9979L29.5156 26.7541L29.7922 27.7307C30.5328 30.2854 31.4844 32.776 32.6328 35.1854L32.8438 35.6244L32.6328 36.0713C31.4859 38.4713 30.5328 40.9619 29.7922 43.526L29.5156 44.4948ZM28.0766 29.276C22.5094 30.8385 19.0922 33.2385 19.0922 35.6244C19.0922 38.0104 22.5109 40.401 28.0766 41.9729C28.7609 39.7994 29.5828 37.6838 30.5422 35.6244C29.5812 33.5651 28.7594 31.4494 28.0766 29.276ZM54.4844 44.4948L54.2078 43.5182C53.4672 40.9635 52.5156 38.4729 51.3672 36.0713L51.1563 35.6244L51.3672 35.1776C52.5141 32.7776 53.4672 30.2869 54.2078 27.7229L54.4844 26.7541L55.4688 26.9979C62.7938 28.8541 67 31.9948 67 35.6244C67 39.2541 62.7922 42.3948 55.4688 44.251L54.4844 44.4948ZM53.4578 35.6244C54.4594 37.7885 55.2891 39.9135 55.9234 41.9729C61.4984 40.4026 64.9078 38.0104 64.9078 35.6244C64.9078 33.2385 61.4891 30.8479 55.9234 29.276C55.2391 31.4401 54.4172 33.5651 53.4578 35.6244ZM28.0594 29.2682L27.7828 28.2916C25.7234 21.0323 26.35 15.8244 29.5 14.0088C32.5922 12.226 37.5484 14.3338 42.7484 19.6729L43.4562 20.3979L42.7484 21.1229C40.9016 23.0432 39.2172 25.1104 37.7031 27.3073L37.4187 27.7057L36.9297 27.7463C34.2688 27.9573 31.6313 28.3807 29.0438 29.0166L28.0594 29.2682ZM32.0141 15.4588C31.4531 15.4588 30.9563 15.5729 30.5406 15.8166C28.4734 17.0135 28.1078 21.1635 29.5313 26.7619C31.7531 26.2651 33.9984 25.9151 36.2703 25.7119C37.5719 23.8557 39.0047 22.0823 40.5422 20.4135C37.2953 17.2479 34.2188 15.4588 32.0141 15.4588ZM51.9937 57.8729C51.9859 57.8729 51.9859 57.8729 51.9937 57.8729C49.0234 57.8729 45.2062 55.6432 41.2516 51.5744L40.5437 50.8494L41.2516 50.1244C43.0984 48.2041 44.7828 46.1369 46.2969 43.9401L46.5734 43.5416L47.0625 43.4932C49.7234 43.2901 52.3609 42.8666 54.9562 42.2229L55.9406 41.9791L56.2172 42.9557C58.2766 50.2151 57.65 55.4151 54.5 57.2291C53.7344 57.6682 52.8719 57.8901 51.9937 57.8729ZM43.4562 50.8338C46.7031 53.9994 49.7797 55.7901 51.9844 55.7901H51.9922C52.5453 55.7901 53.0422 55.6682 53.4578 55.4323C55.525 54.2354 55.9 50.0854 54.4672 44.4869C52.2453 44.9838 49.9906 45.3338 47.7281 45.5291C46.4266 47.3932 44.9937 49.1573 43.4562 50.8338ZM55.9406 29.2682L54.9562 29.0166C52.3609 28.3823 49.7234 27.9588 47.0625 27.7463L46.5734 27.7057L46.2969 27.3073C44.7828 25.1104 43.0984 23.0432 41.2516 21.1229L40.5437 20.3979L41.2516 19.6729C46.4516 14.3338 51.4078 12.226 54.5 14.0088C57.65 15.8229 58.2766 21.0323 56.2172 28.2916L55.9406 29.2682ZM47.7297 25.7119C50.1062 25.9323 52.3687 26.2823 54.4687 26.7619C55.9016 21.1635 55.5266 17.0119 53.4594 15.8166C51.4 14.6291 47.5266 16.451 43.4578 20.4151C44.9953 22.0916 46.4203 23.8573 47.7297 25.7135V25.7119ZM32.0141 57.8729C31.1344 57.8885 30.2641 57.6698 29.5 57.2307C26.35 55.4166 25.7234 50.2151 27.7828 42.9573L28.0594 41.9807L29.0438 42.2244C31.4531 42.8354 34.1063 43.2573 36.9297 43.4948L37.4187 43.5432L37.6953 43.9416C39.2094 46.1385 40.8938 48.2057 42.7406 50.126L43.4484 50.851L42.7406 51.576C38.7938 55.6448 34.9766 57.8744 32.0141 57.8744V57.8729ZM29.5328 44.4869C28.1 50.0854 28.475 54.2369 30.5422 55.4323C32.6016 56.6041 36.4672 54.7979 40.5437 50.8338C39.0062 49.1573 37.5734 47.3916 36.2719 45.5276C34.0016 45.3323 31.7547 44.9838 29.5328 44.4869ZM42 45.7963C40.2828 45.7963 38.525 45.7229 36.7594 45.576L36.2703 45.5354L35.9859 45.1291C34.9938 43.6963 34.0484 42.2244 33.1781 40.7104C32.2984 39.1963 31.4937 37.651 30.7453 36.0713L30.5344 35.6244L30.7453 35.1776C31.4937 33.5994 32.3 32.0526 33.1781 30.5385C34.0406 29.0494 34.9844 27.5604 35.9859 26.1198L36.2703 25.7135L36.7594 25.6729C40.25 25.3791 43.7578 25.3791 47.2406 25.6729L47.7297 25.7135L48.0141 26.1198C50.0078 28.9838 51.7656 32.0198 53.2547 35.1776L53.4656 35.6244L53.2547 36.0713C51.7656 39.2291 50.0156 42.2651 48.0141 45.1291L47.7297 45.5354L47.2406 45.576C45.4828 45.7229 43.7172 45.7963 42 45.7963ZM37.4266 43.5338C40.5031 43.7698 43.4969 43.7698 46.5812 43.5338C48.2984 41.0198 49.8281 38.3744 51.1547 35.6229C49.8359 32.8729 48.3063 30.2276 46.5734 27.7119C43.5297 27.476 40.4703 27.476 37.4266 27.7119C35.6937 30.226 34.1625 32.8713 32.8453 35.6229C34.1719 38.3729 35.7016 41.0182 37.4266 43.5338Z" fill="white"/>
</g>
<defs>
<filter id="filter0_d_128_1672" x="0" y="0.387939" width="84" height="78.4866" filterUnits="userSpaceOnUse" color-interpolation-filters="sRGB">
<feFlood flood-opacity="0" result="BackgroundImageFix"/>
<feColorMatrix in="SourceAlpha" type="matrix" values="0 0 0 0 0 0 0 0 0 0 0 0 0 0 0 0 0 0 127 0" result="hardAlpha"/>
<feOffset dy="4"/>
<feGaussianBlur stdDeviation="8.5"/>
<feComposite in2="hardAlpha" operator="out"/>
<feColorMatrix type="matrix" values="0 0 0 0 0 0 0 0 0 0 0 0 0 0 0 0 0 0 0.1 0"/>
<feBlend mode="normal" in2="BackgroundImageFix" result="effect1_dropShadow_128_1672"/>
<feBlend mode="normal" in="SourceGraphic" in2="effect1_dropShadow_128_1672" result="shape"/>
</filter>
</defs>
</svg>
