<svg width="84" height="95" viewBox="0 0 84 95" fill="none" xmlns="http://www.w3.org/2000/svg">
<g filter="url(#filter0_d_128_1676)">
<path d="M63.8342 21.4952C61.1838 17.6465 57.1619 14.9571 52.5926 13.978C48.0233 12.9988 43.2525 13.8041 39.2578 16.2288L25.2142 25.1566C23.317 26.3448 21.6913 27.919 20.4426 29.7769C19.1939 31.6348 18.3503 33.7347 17.9666 35.9401C17.286 39.6456 17.8781 43.4723 19.6468 46.7988C18.4352 48.6136 17.6231 50.6651 17.2644 52.8175C16.8661 55.0596 16.9182 57.3585 17.4177 59.5802C17.9171 61.8019 18.8539 63.9019 20.1735 65.7578C22.8282 69.6001 26.8458 72.288 31.4105 73.2754C35.9751 74.2629 40.7445 73.4759 44.7499 71.0743L58.7935 62.1465C60.686 60.9557 62.307 59.3804 63.5512 57.5226C64.7955 55.6649 65.6352 53.5663 66.016 51.363C66.6908 47.6656 66.0989 43.8486 64.3358 40.5293C66.1578 37.6676 67.0835 34.3269 66.9941 30.9356C66.9047 27.5443 65.8044 24.2569 63.8342 21.4952ZM37.8534 66.5352C35.6487 67.1084 33.3209 66.9901 31.1857 66.1961C29.0504 65.4021 27.2109 63.9709 25.9163 62.0964C24.2863 59.8394 23.6844 57.0557 24.1609 54.2971L24.4367 52.968L24.6875 52.1404L25.4399 52.642C27.095 53.8959 28.9508 54.7987 30.9319 55.4006L31.4335 55.5761L31.3833 56.0777C31.3332 56.7798 31.5338 57.5573 31.935 58.1591C32.7626 59.3378 34.1921 59.9146 35.5713 59.5384C35.8723 59.4381 36.1732 59.3378 36.424 59.1873L50.4175 50.2596C51.1197 49.8082 51.5711 49.1311 51.7466 48.3286C51.8971 47.501 51.6965 46.6484 51.2451 45.9713C50.4175 44.8177 48.9881 44.291 47.6088 44.6421C47.3078 44.7424 46.9818 44.8678 46.731 45.0183L41.4396 48.3787C39.0244 49.8135 36.1554 50.28 33.4101 49.6844C30.6648 49.0888 28.2471 47.4753 26.6436 45.1688C25.8451 44.0518 25.2783 42.7862 24.9768 41.4467C24.6753 40.1072 24.6452 38.7209 24.8881 37.3695C25.1274 36.0315 25.6464 34.759 26.4113 33.6354C27.1762 32.5118 28.1698 31.5624 29.3269 30.8492L43.2954 21.9215C44.1731 21.3698 45.1261 20.9685 46.1542 20.6676C50.6683 19.4889 55.4331 21.2695 58.0914 25.0813C59.0217 26.3876 59.6352 27.8924 59.8833 29.4768C60.1314 31.0612 60.0073 32.6816 59.5208 34.2097L59.27 35.0373L58.5428 34.5357C56.87 33.3156 55.0053 32.3833 53.0256 31.7771L52.524 31.6267L52.5742 31.1251C52.6244 30.3978 52.4237 29.6204 52.0225 29.0186C51.1949 27.8399 49.7655 27.3383 48.3862 27.6894C48.0853 27.7897 47.7843 27.89 47.5335 28.0405L33.515 37.0435C32.8128 37.52 32.3614 38.172 32.2109 38.9996C32.0604 39.8021 32.2611 40.6798 32.7125 41.3318C33.515 42.5105 34.9695 43.0121 36.3237 42.661C36.6497 42.5606 36.9506 42.4603 37.2014 42.3099L42.543 38.8993C43.4207 38.3225 44.3988 37.8962 45.4019 37.6203C49.941 36.4416 54.6808 38.2222 57.339 42.0591C58.9691 44.3161 59.596 47.0998 59.1446 49.8333C58.9112 51.1671 58.3999 52.4368 57.6438 53.5602C56.8877 54.6835 55.9038 55.6352 54.756 56.3535L40.7625 65.2562C39.8522 65.8066 38.8744 66.2366 37.8534 66.5352Z" fill="white"/>
</g>
<defs>
<filter id="filter0_d_128_1676" x="0" y="0.571533" width="84" height="94.1196" filterUnits="userSpaceOnUse" color-interpolation-filters="sRGB">
<feFlood flood-opacity="0" result="BackgroundImageFix"/>
<feColorMatrix in="SourceAlpha" type="matrix" values="0 0 0 0 0 0 0 0 0 0 0 0 0 0 0 0 0 0 127 0" result="hardAlpha"/>
<feOffset dy="4"/>
<feGaussianBlur stdDeviation="8.5"/>
<feComposite in2="hardAlpha" operator="out"/>
<feColorMatrix type="matrix" values="0 0 0 0 0 0 0 0 0 0 0 0 0 0 0 0 0 0 0.1 0"/>
<feBlend mode="normal" in2="BackgroundImageFix" result="effect1_dropShadow_128_1676"/>
<feBlend mode="normal" in="SourceGraphic" in2="effect1_dropShadow_128_1676" result="shape"/>
</filter>
</defs>
</svg>
