<svg width="85" height="85" viewBox="0 0 85 85" fill="none" xmlns="http://www.w3.org/2000/svg">
<g filter="url(#filter0_d_128_1646)">
<path d="M42.4884 63.6082C40.0454 63.6082 37.6025 63.4221 35.1828 63.0498C32.4141 62.631 30.4132 60.2811 30.3899 57.4892V43.762C30.3899 39.9463 33.4843 36.8519 37.3 36.8519H47.6303C49.5148 36.8519 51.0504 35.3163 51.0504 33.4317V19.7279C51.0504 18.6576 50.2826 17.7735 49.2124 17.6106C44.722 16.9126 40.185 16.9126 35.6947 17.6106C34.6477 17.7735 33.8567 18.6808 33.8567 19.7511V28.2899C33.8567 29.2438 33.0656 30.0349 32.1117 30.0349C31.1578 30.0349 30.3667 29.2438 30.3667 28.2899V19.7511C30.39 16.9591 32.3909 14.6093 35.1596 14.1905C39.9989 13.4459 44.9081 13.4459 49.7475 14.1905C52.5162 14.6093 54.5171 16.9591 54.5404 19.7511V33.4783C54.5404 37.2939 51.446 40.3884 47.6303 40.3884H37.3C35.4155 40.3884 33.8799 41.924 33.8799 43.8085V57.5124C33.8799 58.5827 34.6477 59.4668 35.7179 59.6297C40.2083 60.3277 44.7452 60.3277 49.2356 59.6297C50.2826 59.4668 51.0737 58.5594 51.0737 57.4892V48.9504C51.0737 47.9965 51.8647 47.2054 52.8187 47.2054C53.7726 47.2054 54.5636 47.9965 54.5636 48.9504V57.4892C54.5404 60.2811 52.5395 62.631 49.7708 63.0498C47.3743 63.4221 44.9314 63.6082 42.4884 63.6082Z" fill="white"/>
<path d="M42.4881 50.6716C41.5342 50.6716 40.7432 49.8805 40.7432 48.9266C40.7432 47.9727 41.5342 47.1816 42.4881 47.1816H61.3804C62.4507 47.1816 63.3348 46.4138 63.4977 45.3436C64.1957 40.8532 64.1957 36.3162 63.4977 31.8258C63.3348 30.7556 62.4507 29.9878 61.3804 29.9878H52.8417C51.8878 29.9878 51.0967 29.1967 51.0967 28.2428C51.0967 27.2889 51.8878 26.4978 52.8417 26.4978H61.3804C64.1724 26.5211 66.5223 28.522 66.9411 31.2907C67.6856 36.1301 67.6856 41.0393 66.9411 45.8787C66.5223 48.6474 64.1724 50.6483 61.3804 50.6716H42.4881Z" fill="white"/>
<path d="M32.1578 50.6716H23.6191C20.8271 50.6483 18.4772 48.6474 18.0584 45.8787C17.3139 41.0393 17.3139 36.1301 18.0584 31.2907C18.4772 28.522 20.8271 26.5211 23.6191 26.4978H42.4882C43.4421 26.4978 44.2331 27.2889 44.2331 28.2428C44.2331 29.1967 43.4421 29.9878 42.4882 29.9878H23.5958C22.5255 29.9878 21.6414 30.7556 21.4786 31.8258C20.7806 36.3162 20.7806 40.8532 21.4786 45.3436C21.6414 46.4138 22.5255 47.1816 23.5958 47.1816H32.1345C33.0884 47.1816 33.8795 47.9727 33.8795 48.9266C33.8795 49.8805 33.1117 50.6716 32.1578 50.6716Z" fill="white"/>
<path d="M38.6023 23.6604C37.6484 23.6604 36.7178 22.753 36.7178 21.7758C36.7178 20.7986 37.6252 19.9146 38.6023 19.9146C39.0443 19.9146 39.5797 20.124 39.9054 20.4264C40.2544 20.7522 40.4871 21.3105 40.4871 21.7758C40.4871 22.753 39.5795 23.6604 38.6023 23.6604Z" fill="white"/>
<path d="M46.3748 57.2804C45.4209 57.2804 44.4902 56.373 44.4902 55.3958C44.4902 54.4186 45.3976 53.5112 46.3748 53.5112C46.8169 53.5112 47.352 53.7206 47.6777 54.0231C48.0267 54.3488 48.2594 54.907 48.2594 55.3723C48.2361 56.3728 47.3287 57.2804 46.3748 57.2804Z" fill="white"/>
</g>
<defs>
<filter id="filter0_d_128_1646" x="0.5" y="0.63208" width="83.9995" height="83.9761" filterUnits="userSpaceOnUse" color-interpolation-filters="sRGB">
<feFlood flood-opacity="0" result="BackgroundImageFix"/>
<feColorMatrix in="SourceAlpha" type="matrix" values="0 0 0 0 0 0 0 0 0 0 0 0 0 0 0 0 0 0 127 0" result="hardAlpha"/>
<feOffset dy="4"/>
<feGaussianBlur stdDeviation="8.5"/>
<feComposite in2="hardAlpha" operator="out"/>
<feColorMatrix type="matrix" values="0 0 0 0 0 0 0 0 0 0 0 0 0 0 0 0 0 0 0.1 0"/>
<feBlend mode="normal" in2="BackgroundImageFix" result="effect1_dropShadow_128_1646"/>
<feBlend mode="normal" in="SourceGraphic" in2="effect1_dropShadow_128_1646" result="shape"/>
</filter>
</defs>
</svg>
