<svg width="84" height="85" viewBox="0 0 84 85" fill="none" xmlns="http://www.w3.org/2000/svg">
<g filter="url(#filter0_d_128_1674)">
<path d="M32 28.6311L33.3511 27.6553C32.9279 27.0692 32.1751 26.8229 31.4872 27.0453C30.7994 27.2677 30.3333 27.9082 30.3333 28.6311H32ZM42 60.2978C30.0338 60.2978 20.3333 50.5974 20.3333 38.6311H17C17 52.4381 28.1929 63.6311 42 63.6311V60.2978ZM63.6667 38.6311C63.6667 50.5974 53.9663 60.2978 42 60.2978V63.6311C55.807 63.6311 67 52.4381 67 38.6311H63.6667ZM42 16.9644C53.9663 16.9644 63.6667 26.6649 63.6667 38.6311H67C67 24.824 55.807 13.6311 42 13.6311V16.9644ZM42 13.6311C28.1929 13.6311 17 24.824 17 38.6311H20.3333C20.3333 26.6649 30.0338 16.9644 42 16.9644V13.6311ZM33.6667 53.6311V28.6311H30.3333V53.6311H33.6667ZM30.6489 29.6069L52.3157 59.6068L55.0177 57.6554L33.3511 27.6553L30.6489 29.6069ZM50.3333 26.9644V46.9644H53.6667V26.9644H50.3333Z" fill="white"/>
</g>
<defs>
<filter id="filter0_d_128_1674" x="0" y="0.631104" width="84" height="84" filterUnits="userSpaceOnUse" color-interpolation-filters="sRGB">
<feFlood flood-opacity="0" result="BackgroundImageFix"/>
<feColorMatrix in="SourceAlpha" type="matrix" values="0 0 0 0 0 0 0 0 0 0 0 0 0 0 0 0 0 0 127 0" result="hardAlpha"/>
<feOffset dy="4"/>
<feGaussianBlur stdDeviation="8.5"/>
<feComposite in2="hardAlpha" operator="out"/>
<feColorMatrix type="matrix" values="0 0 0 0 0 0 0 0 0 0 0 0 0 0 0 0 0 0 0.1 0"/>
<feBlend mode="normal" in2="BackgroundImageFix" result="effect1_dropShadow_128_1674"/>
<feBlend mode="normal" in="SourceGraphic" in2="effect1_dropShadow_128_1674" result="shape"/>
</filter>
</defs>
</svg>
