<svg width="85" height="85" viewBox="0 0 85 85" fill="none" xmlns="http://www.w3.org/2000/svg">
<g filter="url(#filter0_d_128_1657)">
<g clip-path="url(#clip0_128_1657)">
<path d="M17.5 38.6201V63.6201H67.5V13.6201H17.5V38.6201ZM57.7937 36.6284C59.0646 36.9451 60.0312 37.5097 60.9208 38.4305C61.3812 38.9222 62.0646 39.818 62.1187 40.0347C62.1354 40.0972 59.9604 41.5555 58.6437 42.3743C58.5958 42.4055 58.4042 42.1993 58.1917 41.8826C57.5458 40.9451 56.8729 40.5409 55.8417 40.4701C54.325 40.3659 53.35 41.1597 53.3583 42.4847C53.3445 42.8105 53.4179 43.1342 53.5708 43.4222C53.9042 44.1118 54.525 44.5264 56.4667 45.3659C60.0479 46.9076 61.5792 47.9222 62.5312 49.366C63.5937 50.9764 63.8333 53.5493 63.1104 55.4618C62.3187 57.5409 60.35 58.9534 57.5792 59.4201C56.7229 59.5722 54.6917 59.5493 53.7708 59.3826C51.7625 59.0243 49.8583 58.0326 48.6833 56.7305C48.2229 56.2243 47.325 54.8972 47.3812 54.8034C47.5257 54.693 47.679 54.5948 47.8396 54.5097C48.0646 54.3826 48.9042 53.8972 49.6979 53.4368L51.1354 52.6034L51.4375 53.0493C51.8583 53.691 52.7771 54.5722 53.3333 54.8659C54.9292 55.7076 57.1187 55.5889 58.1979 54.6201C58.4149 54.4373 58.5867 54.2068 58.6998 53.9466C58.813 53.6864 58.8644 53.4035 58.85 53.1201C58.85 52.5409 58.7771 52.2868 58.475 51.8493C58.0875 51.2951 57.2937 50.8284 55.0396 49.8493C52.4604 48.7389 51.35 48.0493 50.3333 46.9534C49.6988 46.2303 49.2302 45.377 48.9604 44.4534C48.7708 43.7472 48.7229 41.9764 48.8729 41.2639C49.4042 38.7701 51.2854 37.0347 54 36.518C54.8812 36.3514 56.9292 36.4139 57.7937 36.6284ZM46.0562 38.7159L46.0729 40.7639H39.5625V59.2555H34.9583V40.7639H28.4542V38.7555C28.4542 37.643 28.4771 36.7139 28.5083 36.693C28.5333 36.6597 32.4938 36.643 37.2938 36.6514L46.0333 36.6764L46.0562 38.7159Z" fill="white"/>
</g>
</g>
<defs>
<filter id="filter0_d_128_1657" x="0.5" y="0.620117" width="84" height="84" filterUnits="userSpaceOnUse" color-interpolation-filters="sRGB">
<feFlood flood-opacity="0" result="BackgroundImageFix"/>
<feColorMatrix in="SourceAlpha" type="matrix" values="0 0 0 0 0 0 0 0 0 0 0 0 0 0 0 0 0 0 127 0" result="hardAlpha"/>
<feOffset dy="4"/>
<feGaussianBlur stdDeviation="8.5"/>
<feComposite in2="hardAlpha" operator="out"/>
<feColorMatrix type="matrix" values="0 0 0 0 0 0 0 0 0 0 0 0 0 0 0 0 0 0 0.1 0"/>
<feBlend mode="normal" in2="BackgroundImageFix" result="effect1_dropShadow_128_1657"/>
<feBlend mode="normal" in="SourceGraphic" in2="effect1_dropShadow_128_1657" result="shape"/>
</filter>
<clipPath id="clip0_128_1657">
<rect x="17.5" y="13.6201" width="50" height="50" rx="5" fill="white"/>
</clipPath>
</defs>
</svg>
