<svg width="85" height="61" viewBox="0 0 85 61" fill="none" xmlns="http://www.w3.org/2000/svg">
<g filter="url(#filter0_d_128_1669)">
<path d="M32.1078 22.8843H30.1375L29.0641 28.4015H30.8141C31.9687 28.4015 32.8313 28.1827 33.4016 27.7437C33.9625 27.3124 34.3453 26.5796 34.5406 25.5624C34.7344 24.5858 34.6453 23.8937 34.2891 23.4874C33.9219 23.089 33.1969 22.8843 32.1078 22.8843ZM42.5 13.4702C28.6891 13.4702 17.5 19.3624 17.5 26.6202C17.5 33.878 28.6891 39.7702 42.5 39.7702C56.3109 39.7702 67.5 33.878 67.5 26.6202C67.5 19.3624 56.3109 13.4702 42.5 13.4702ZM35.7047 28.9968C35.1672 29.5171 34.5094 29.9077 33.8 30.1421C33.1 30.3624 32.2062 30.4843 31.1234 30.4843H28.6562L27.9813 33.9843H25.1078L27.6719 20.8093H33.1891C34.85 20.8093 36.0625 21.2405 36.8266 22.1108C37.5844 22.9812 37.8203 24.203 37.5094 25.7655C37.3969 26.3843 37.1766 26.978 36.8766 27.5327C36.575 28.0593 36.1937 28.5499 35.7031 28.9968H35.7047ZM44.0953 30.4843L45.2266 24.6515C45.3563 23.9905 45.3078 23.5374 45.0781 23.2905C44.8594 23.0546 44.3781 22.9327 43.6469 22.9327H41.3766L39.9125 30.4843H37.0562L39.6188 17.3015H42.4672L41.7844 20.8093H44.3234C45.9281 20.8093 47.025 21.0858 47.6281 21.639C48.2391 22.2015 48.4172 23.103 48.1828 24.3499L46.9844 30.4858L44.0953 30.4843ZM59.9141 25.7655C59.8016 26.3843 59.5891 26.978 59.2812 27.5327C58.9875 28.0593 58.5984 28.5499 58.1172 28.9968C57.5719 29.5093 56.9219 29.9077 56.2047 30.1421C55.5047 30.3624 54.6094 30.4843 53.5281 30.4843H51.0703L50.3875 33.9843H47.5141L50.0781 20.8093H55.5953C57.2563 20.8093 58.4687 21.2405 59.2328 22.1202C59.9906 22.9827 60.225 24.203 59.9141 25.7655ZM54.5125 22.8843H52.55L51.4766 28.4015H53.2188C54.3813 28.4015 55.2438 28.1827 55.8063 27.7437C56.375 27.3124 56.7578 26.5796 56.9547 25.5624C57.1484 24.5858 57.0594 23.8937 56.6922 23.4874C56.3359 23.089 55.6031 22.8843 54.5125 22.8843Z" fill="white"/>
</g>
<defs>
<filter id="filter0_d_128_1669" x="0.5" y="0.470215" width="84" height="60.3" filterUnits="userSpaceOnUse" color-interpolation-filters="sRGB">
<feFlood flood-opacity="0" result="BackgroundImageFix"/>
<feColorMatrix in="SourceAlpha" type="matrix" values="0 0 0 0 0 0 0 0 0 0 0 0 0 0 0 0 0 0 127 0" result="hardAlpha"/>
<feOffset dy="4"/>
<feGaussianBlur stdDeviation="8.5"/>
<feComposite in2="hardAlpha" operator="out"/>
<feColorMatrix type="matrix" values="0 0 0 0 0 0 0 0 0 0 0 0 0 0 0 0 0 0 0.1 0"/>
<feBlend mode="normal" in2="BackgroundImageFix" result="effect1_dropShadow_128_1669"/>
<feBlend mode="normal" in="SourceGraphic" in2="effect1_dropShadow_128_1669" result="shape"/>
</filter>
</defs>
</svg>
