<svg width="85" height="103" viewBox="0 0 85 103" fill="none" xmlns="http://www.w3.org/2000/svg">
<g filter="url(#filter0_d_128_1654)">
<path d="M33.6072 66.1452C33.6072 66.1452 31.0144 67.6555 35.448 68.1618C40.82 68.7803 43.5674 68.6935 49.4817 67.5665C49.4817 67.5665 51.0344 68.5494 53.2099 69.3989C39.9388 75.0823 23.1788 69.0578 33.6051 66.1452H33.6072ZM31.9824 58.7311C31.9824 58.7311 29.0698 60.8812 33.5055 61.3324C39.2567 61.9276 43.7771 61.9848 51.6212 60.4745C51.6212 60.4745 52.7037 61.5675 54.4153 62.1712C38.3734 66.859 20.497 62.5356 31.9824 58.7311ZM45.6518 46.1442C48.9161 49.9063 44.7897 53.2934 44.7897 53.2934C44.7897 53.2934 53.0871 48.9996 49.2805 43.6403C45.7196 38.6305 42.9828 36.15 57.7643 27.5751C57.7643 27.5751 34.5625 33.3687 45.6497 46.1463L45.6518 46.1442ZM63.1956 71.64C63.1956 71.64 65.1169 73.216 61.0879 74.4425C53.4302 76.7578 29.2138 77.4526 22.484 74.5294C20.0691 73.4808 24.6023 72.015 26.0258 71.7163C27.5149 71.3858 28.3644 71.4536 28.3644 71.4536C25.672 69.5556 10.9774 75.1712 20.8974 76.7811C47.9608 81.1724 70.222 74.8069 63.1956 71.64ZM34.8527 51.0417C34.8527 51.0417 22.5306 53.9649 30.4827 55.0241C33.8487 55.4753 40.5467 55.3778 46.7915 54.8483C51.886 54.4161 57.0081 53.501 57.0081 53.501C57.0081 53.501 55.2096 54.2721 53.9069 55.1681C41.3941 58.4557 17.2242 56.9221 24.185 53.5582C30.0654 50.7218 34.8527 51.0417 34.8527 51.0417ZM56.9509 63.3977C69.6607 56.778 63.7803 50.4337 59.6877 51.2959C58.6815 51.4929 58.2303 51.6835 58.2303 51.6835C58.2303 51.6835 58.5947 51.0967 59.3128 50.8447C67.4322 47.9871 73.677 59.2607 56.6967 63.7303C56.6967 63.7197 56.8979 63.5524 56.9509 63.3977ZM49.2826 13.7278C49.2826 13.7278 56.3238 20.7669 42.5972 31.5999C31.599 40.2934 40.0913 45.2481 42.5972 50.9082C36.1767 45.1147 31.4656 40.0201 34.6218 35.2751C39.2652 28.2911 52.119 24.9145 49.2826 13.7278ZM36.0983 81.3037C48.3018 82.0748 67.0446 80.8631 67.5 75.0929C67.5 75.0929 66.6378 77.2768 57.4021 79.0181C46.9885 80.9817 34.1346 80.7487 26.5109 79.4926C26.5109 79.4926 28.0784 80.7826 36.0962 81.3037H36.0983Z" fill="white"/>
</g>
<defs>
<filter id="filter0_d_128_1654" x="0.5" y="0.727783" width="84" height="101.785" filterUnits="userSpaceOnUse" color-interpolation-filters="sRGB">
<feFlood flood-opacity="0" result="BackgroundImageFix"/>
<feColorMatrix in="SourceAlpha" type="matrix" values="0 0 0 0 0 0 0 0 0 0 0 0 0 0 0 0 0 0 127 0" result="hardAlpha"/>
<feOffset dy="4"/>
<feGaussianBlur stdDeviation="8.5"/>
<feComposite in2="hardAlpha" operator="out"/>
<feColorMatrix type="matrix" values="0 0 0 0 0 0 0 0 0 0 0 0 0 0 0 0 0 0 0.1 0"/>
<feBlend mode="normal" in2="BackgroundImageFix" result="effect1_dropShadow_128_1654"/>
<feBlend mode="normal" in="SourceGraphic" in2="effect1_dropShadow_128_1654" result="shape"/>
</filter>
</defs>
</svg>
