<svg width="84" height="65" viewBox="0 0 84 65" fill="none" xmlns="http://www.w3.org/2000/svg">
<g filter="url(#filter0_d_128_1684)">
<path d="M42 13.6311C35.325 13.6311 31.175 16.9561 29.5 23.6311C32 20.3061 34.925 19.0561 38.25 19.8811C40.15 20.3561 41.525 21.7311 43.025 23.2561C45.475 25.7561 48.25 28.6311 54.5 28.6311C61.175 28.6311 65.325 25.3061 67 18.6311C64.5 21.9561 61.575 23.2061 58.25 22.3811C56.35 21.9061 55 20.5311 53.475 19.0061C51.025 16.5061 48.25 13.6311 42 13.6311ZM29.5 28.6311C22.825 28.6311 18.675 31.9561 17 38.6311C19.5 35.3061 22.425 34.0561 25.75 34.8811C27.65 35.3561 29 36.7311 30.525 38.2561C32.975 40.7561 35.75 43.6311 42 43.6311C48.675 43.6311 52.825 40.3061 54.5 33.6311C52 36.9561 49.075 38.2061 45.75 37.3811C43.85 36.9061 42.5 35.5311 40.975 34.0061C38.525 31.5061 35.75 28.6311 29.5 28.6311Z" fill="white"/>
</g>
<defs>
<filter id="filter0_d_128_1684" x="0" y="0.631104" width="84" height="64" filterUnits="userSpaceOnUse" color-interpolation-filters="sRGB">
<feFlood flood-opacity="0" result="BackgroundImageFix"/>
<feColorMatrix in="SourceAlpha" type="matrix" values="0 0 0 0 0 0 0 0 0 0 0 0 0 0 0 0 0 0 127 0" result="hardAlpha"/>
<feOffset dy="4"/>
<feGaussianBlur stdDeviation="8.5"/>
<feComposite in2="hardAlpha" operator="out"/>
<feColorMatrix type="matrix" values="0 0 0 0 0 0 0 0 0 0 0 0 0 0 0 0 0 0 0.1 0"/>
<feBlend mode="normal" in2="BackgroundImageFix" result="effect1_dropShadow_128_1684"/>
<feBlend mode="normal" in="SourceGraphic" in2="effect1_dropShadow_128_1684" result="shape"/>
</filter>
</defs>
</svg>
