<svg width="85" height="85" viewBox="0 0 85 85" fill="none" xmlns="http://www.w3.org/2000/svg">
<g filter="url(#filter0_d_128_1660)">
<path d="M62.1429 13.6201H22.8571C19.8996 13.6201 17.5 16.0197 17.5 18.9773V58.263C17.5 61.2206 19.8996 63.6201 22.8571 63.6201H62.1429C65.1004 63.6201 67.5 61.2206 67.5 58.263V18.9773C67.5 16.0197 65.1004 13.6201 62.1429 13.6201ZM44.7098 52.6157C44.7098 57.4817 41.8527 59.7027 37.6897 59.7027C33.9286 59.7027 31.7522 57.7607 30.6362 55.4058L34.4643 53.0956C35.2009 54.4014 35.8705 55.5063 37.4888 55.5063C39.029 55.5063 40.0112 54.9036 40.0112 52.5487V36.5777H44.7098V52.6157ZM55.8259 59.7027C51.4621 59.7027 48.6384 57.6268 47.2656 54.9036L51.0937 52.6938C52.0982 54.3344 53.4152 55.5509 55.7254 55.5509C57.6674 55.5509 58.9174 54.5799 58.9174 53.2295C58.9174 51.6223 57.6451 51.0532 55.4911 50.1045L54.3192 49.6023C50.9263 48.1625 48.683 46.3433 48.683 42.5152C48.683 38.9884 51.3728 36.3098 55.558 36.3098C58.5491 36.3098 60.692 37.3478 62.2321 40.071L58.5714 42.4148C57.7679 40.975 56.8973 40.4058 55.5469 40.4058C54.1741 40.4058 53.3036 41.2764 53.3036 42.4148C53.3036 43.821 54.1741 44.3902 56.1942 45.2719L57.3661 45.7741C61.3616 47.4817 63.6049 49.234 63.6049 53.1625C63.6049 57.3813 60.279 59.7027 55.8259 59.7027Z" fill="white"/>
</g>
<defs>
<filter id="filter0_d_128_1660" x="0.5" y="0.620117" width="84" height="84" filterUnits="userSpaceOnUse" color-interpolation-filters="sRGB">
<feFlood flood-opacity="0" result="BackgroundImageFix"/>
<feColorMatrix in="SourceAlpha" type="matrix" values="0 0 0 0 0 0 0 0 0 0 0 0 0 0 0 0 0 0 127 0" result="hardAlpha"/>
<feOffset dy="4"/>
<feGaussianBlur stdDeviation="8.5"/>
<feComposite in2="hardAlpha" operator="out"/>
<feColorMatrix type="matrix" values="0 0 0 0 0 0 0 0 0 0 0 0 0 0 0 0 0 0 0.1 0"/>
<feBlend mode="normal" in2="BackgroundImageFix" result="effect1_dropShadow_128_1660"/>
<feBlend mode="normal" in="SourceGraphic" in2="effect1_dropShadow_128_1660" result="shape"/>
</filter>
</defs>
</svg>
