<svg width="84" height="94" viewBox="0 0 84 94" fill="none" xmlns="http://www.w3.org/2000/svg">
<g filter="url(#filter0_d_128_1680)">
<path d="M45.6281 72.042C44.8584 71.9073 44.0611 71.5418 43.6089 71.1376C43.3006 70.8201 43.129 70.3882 43.1179 69.9452C43.1179 69.493 43.3486 68.8581 43.7141 68.225C43.9356 67.8688 44.1091 67.4848 44.2327 67.0806C44.3102 66.8019 44.4727 66.3497 44.5982 66.0617L44.8197 65.5339L44.8769 62.0066C44.9064 60.0556 44.9636 58.2486 45.0116 57.9681C45.1371 57.1596 45.3476 56.3715 45.6263 55.6036L45.8385 55.0942L45.5303 54.9115C45.2516 54.738 45.0209 54.498 44.1072 53.4109C42.9831 52.0838 41.5028 51.3528 39.406 51.1037C38.7231 51.0372 38.0309 50.9874 37.3388 50.9597C34.2619 50.8157 32.5029 50.1715 30.9174 48.6137C29.7342 47.4509 29.1196 46.0942 28.8704 44.0953C28.5345 41.3931 28.1598 40.0088 27.4676 38.8847C27.2941 38.606 27.1022 38.3457 26.8807 38.1058L26.602 37.8271L25.9873 38.2221C25.6514 38.4435 25.1789 38.7223 24.9482 38.8478C24.1785 39.2704 23.4475 39.7411 22.7462 40.2505C21.0259 41.5001 19.1506 43.0672 18.1225 44.0953C17.6611 44.5567 17.4211 44.7579 17.3141 44.7395C16.6127 44.6342 17.1498 41.5961 18.2942 39.3074C19.756 36.356 22.2164 33.6353 25.0626 31.7988C27.3993 30.2889 31.1776 28.2125 32.9256 27.4815C36.0301 26.184 40.0484 24.7793 42.7986 24.03C43.3763 23.8657 43.7307 23.7217 43.9706 23.5593C44.5096 23.1846 45.0375 23.0019 45.6429 22.9926C46.1523 22.9834 46.2003 22.9742 46.6913 22.6456C47.269 22.2709 47.4407 22.2506 48.0184 22.4537L48.3931 22.5884L48.8545 22.2709L49.316 21.9627L49.9786 21.9719C50.488 21.9812 50.7187 21.9627 50.9402 21.8667C51.2189 21.7412 51.2282 21.7227 51.3057 21.2613C51.4792 20.2609 51.4977 19.7607 51.3924 19.1553C51.2577 18.3579 51.2392 15.2626 51.374 14.6553C51.518 14.0019 51.6139 13.8672 52.1049 13.6272C52.8358 13.271 53.384 13.1658 54.6428 13.1658C56.1804 13.1658 56.9593 13.378 57.537 13.9355C58.0557 14.4357 58.1424 15.6077 57.8729 18.3579C57.7087 19.9434 57.6902 20.3864 57.7382 21.4237C57.7567 22.0864 57.8046 22.7121 57.8249 22.7988C57.8637 22.9631 57.9025 22.9723 58.4599 22.9816C59.0081 22.9908 59.1041 23.0203 59.6227 23.2898C60.1229 23.5501 60.4976 23.8675 60.5751 24.0982C60.5844 24.1462 60.6711 24.1462 60.8243 24.0982C61.1215 24.0115 61.3817 24.1075 61.594 24.3677C61.7195 24.532 61.7952 24.5597 62.085 24.5597C62.48 24.5597 62.6239 24.6557 62.9506 25.1374C63.1038 25.3589 63.3161 25.5213 63.5561 25.6284C64.095 25.8979 64.8259 26.6473 65.1046 27.2434C65.5366 28.1276 65.6233 29.1556 65.3538 30.0785C65.2578 30.4255 65.2578 30.4348 65.459 30.7707C65.8817 31.4924 66.0368 32.3765 65.8633 33.1259L65.7673 33.5689L66.0552 33.8568C67.4875 35.2891 67.2753 37.6259 65.5273 39.7116C65.3446 39.9331 65.1231 40.2782 65.0364 40.4905C64.7004 41.3839 64.3147 42.0096 63.8163 42.5282L63.3069 43.0469H62.7882C62.2696 43.0469 61.5386 42.8734 61.0956 42.6427C60.9129 42.5467 60.9037 42.5467 60.9424 42.6611C61.0587 43.0838 61.3467 44.8041 61.4426 45.7565C61.5958 47.2183 61.5479 49.3428 61.3467 50.2564C61.2027 50.9302 60.9517 51.5836 60.6157 52.189C60.4238 52.4972 60.4146 52.5637 60.4515 52.9383C60.5087 53.4662 60.385 54.3522 60.1728 54.9373C59.9125 55.6202 59.8165 55.9377 59.7593 56.2829C59.7113 56.58 59.7113 56.58 59.9236 56.58C60.2023 56.58 60.3555 56.7443 60.3555 57.071C60.3555 57.215 60.23 57.9939 60.0768 58.7913C59.6541 61.032 59.6246 61.2812 59.6246 63.4537C59.6153 65.6944 59.6153 65.6741 60.1248 66.0101L61.2691 66.7502C62.2492 67.4036 63.3069 67.9426 64.4125 68.3653C66.0183 69.0002 66.2398 69.1626 66.2398 69.7016C66.2398 69.9415 66.1918 70.0283 65.9906 70.2203C65.376 70.8164 64.1633 70.9512 61.7214 70.6909C60.4515 70.5746 59.1742 70.5082 57.9043 70.5082C54.5395 70.4602 54.0485 70.3439 53.6074 69.5078C53.3582 69.0279 53.4062 68.4022 53.7513 67.3741C53.9045 66.9219 54.0393 66.4604 54.1556 65.9898C54.3863 64.8749 54.2331 63.5478 53.6941 62.0491L53.2327 60.7699C52.7805 59.4724 52.5313 57.0969 52.8008 56.5597C52.8488 56.4545 52.9355 56.4342 53.1662 56.4435L53.4542 56.473L53.6941 55.9728C53.8768 55.5778 54.078 55.3194 54.6262 54.7712L55.3276 54.0698L55.2889 53.6176C55.2593 53.1857 54.6927 51.0889 54.6152 51.0981C54.5856 51.0981 54.4324 51.3104 54.2589 51.578C53.8362 52.213 52.9041 53.1931 52.3744 53.5493C52.1437 53.7025 51.9517 53.8852 51.9517 53.9443C51.9425 54.2045 51.721 54.714 51.4515 55.0684C51.1913 55.4154 51.1728 55.4726 51.2116 55.779C51.278 56.2312 51.134 57.682 50.9624 58.4424C50.8092 58.9998 50.5969 59.548 50.3274 60.0759C49.6648 61.451 49.1646 62.6803 49.0391 63.2488C48.9431 63.797 48.8951 64.3544 48.8656 64.9026C48.8361 65.556 48.7696 66.191 48.7216 66.3257C48.6552 66.5084 48.6552 66.6524 48.7124 66.9311C48.7604 67.1323 48.7899 67.5845 48.7788 67.9407C48.7696 68.4317 48.8084 68.7492 48.9523 69.3251C49.2015 70.3052 49.2495 70.9217 49.1351 71.2871C49.0576 71.5178 48.9819 71.6046 48.7216 71.7301C48.1439 72.0273 46.5104 72.1915 45.6263 72.0383L45.6281 72.042ZM47.963 71.2539C48.2989 71.1579 48.5887 70.87 48.5887 70.6097C48.5887 70.4934 48.4927 70.1575 48.3765 69.8603C48.1457 69.2937 47.7508 67.7931 47.7508 67.5439C47.7508 67.4184 47.76 67.4092 47.9519 67.5144L48.1642 67.6306V67.3612C48.1347 67.112 48.0775 66.8702 47.9999 66.6302C47.8172 66.0821 47.7987 66.0728 46.6341 66.0045L45.8459 65.9658L45.558 66.2445C45.4048 66.4088 45.2608 66.5804 45.1445 66.7834C45.019 67.0326 44.971 67.4092 45.0485 67.4941C45.067 67.5236 45.2608 67.4941 45.4712 67.4461C45.5967 67.4073 45.7204 67.3889 45.8551 67.3796C45.8551 67.3889 45.6429 67.5624 45.3752 67.7451C44.2216 68.6108 43.8174 69.1386 43.8174 69.8123C43.8174 70.5137 44.4801 71.0619 45.5192 71.2262C46.2298 71.3314 47.6142 71.3609 47.9612 71.2557L47.963 71.2539ZM63.604 70.1095C63.892 69.7625 63.8532 69.4081 63.4878 69.0039C63.2755 68.7916 63.0355 68.6089 62.7661 68.4649C62.4966 68.321 62.2271 68.1567 61.9576 67.985C61.7454 67.8318 61.0735 67.4368 60.457 67.1009C60.014 66.861 59.5821 66.6099 59.1594 66.3423L58.9859 66.2076V63.5644C58.9859 60.9601 58.9767 60.9213 58.842 60.96C58.1683 61.1428 57.0534 61.2295 55.6414 61.2L54.1131 61.1815L54.3346 61.7205C54.7481 62.7394 54.9603 64.1052 54.9603 65.6723C54.9603 66.2592 54.9216 66.4697 54.7776 66.8831C54.7001 67.0843 54.6336 67.2873 54.5653 67.4885C54.5358 67.5753 54.6428 67.6417 55.036 67.758C55.3239 67.8448 55.7466 67.9315 55.9884 67.9592L56.4314 68.0072L56.3834 68.4502C56.3354 68.9504 56.3926 69.4783 56.5181 69.6425C56.5957 69.7385 56.8836 69.7773 58.2199 69.8345C59.2296 69.8825 60.326 69.9877 61.1898 70.1132C61.9392 70.2295 62.7476 70.3255 62.9876 70.3255C63.3918 70.3347 63.4305 70.3162 63.6022 70.1132L63.604 70.1095ZM48.214 65.6114C48.2528 65.5818 48.31 65.0632 48.3303 64.4485C48.4078 62.7283 48.4743 62.4773 49.34 60.5355C50.0506 58.95 50.4271 57.4697 50.3976 56.4213L50.3791 55.7956L50.1096 56.0558C49.5522 56.6133 49.9361 55.7384 50.6006 54.9595C51.1008 54.3633 51.2743 54.0366 51.35 53.5087C51.3888 53.2964 51.4663 53.1912 51.793 52.942C53.0333 52.0007 53.9267 50.8083 54.5136 49.3465C54.6484 48.9995 54.9935 47.8182 55.2833 46.7218C55.8223 44.6933 56.1102 43.8184 56.3705 43.4437C56.4665 43.2998 56.5052 43.2702 56.4868 43.3662C56.3336 43.9439 56.2856 44.1839 56.1601 44.9333C56.0825 45.4039 55.9386 46.3268 55.8426 46.971C55.6599 48.2889 55.4679 49.1342 55.2076 49.7876L55.0341 50.2306L55.4956 51.423C55.9755 52.643 56.197 53.529 56.2357 54.3836L56.2653 54.8635L55.8906 54.941C55.3904 55.0278 54.9585 55.3065 54.6595 55.7107C54.3328 56.1814 54.15 56.5671 54.2368 56.652C54.2755 56.6908 54.7462 56.7775 55.2852 56.844C56.1213 56.94 56.4388 56.94 57.5444 56.8735C58.0243 56.8551 58.4968 56.8071 58.9675 56.7388C59.0727 56.7 59.1797 56.4896 59.3514 55.9414C59.7464 54.6826 59.8221 54.2396 59.7741 53.3555L59.7353 52.5766L59.9365 52.3163C60.4072 51.7201 60.7726 50.6441 60.9258 49.3834C61.1086 47.8459 60.7726 44.625 60.1469 41.8564C59.8498 40.5385 59.7242 39.7503 59.7242 39.1745V38.665L59.2536 38.713C57.561 38.8958 55.514 38.8478 54.2645 38.5875C53.5815 38.4528 51.8613 37.9433 51.4866 37.7791L51.1894 37.6443L51.1507 37.9803C51.1211 38.163 51.0934 38.3457 51.0547 38.5377C50.9975 38.7389 51.0159 38.7869 51.3721 39.1339C51.8151 39.5861 51.9499 39.8168 51.9499 40.1232C51.9499 40.3152 51.8447 40.4702 51.3057 41.0276C50.9107 41.4411 50.4123 41.8841 50.0266 42.1332L49.4009 42.5559L49.1314 43.488C48.1697 46.9008 47.987 50.0054 48.622 52.2259L48.7752 52.7833L48.4669 53.1672C47.3133 54.618 46.6304 55.7236 46.5252 56.3401C46.5067 56.4656 46.4089 56.868 46.3129 57.2445C46.0637 58.1969 45.8699 59.5905 45.785 61.1003C45.7278 62.3591 45.641 63.629 45.5358 64.8878L45.4878 65.2625L45.9677 65.4065C46.2372 65.4933 46.6414 65.5892 46.8722 65.628C47.3041 65.6944 48.1033 65.676 48.227 65.6095L48.214 65.6114ZM57.5481 60.3233C58.2975 60.2753 58.9804 60.159 59.1151 60.0445C59.1724 60.0058 59.2406 59.8046 59.2591 59.6016L59.3071 59.2361L58.7109 59.3708C58.2402 59.4668 57.7696 59.524 57.2971 59.5628C56.1619 59.6108 55.0194 59.5813 53.8935 59.4668C53.5188 59.4096 53.5188 59.4096 53.6332 59.8987C53.7292 60.2642 53.7495 60.2827 54.7296 60.3509C55.383 60.4082 56.2966 60.3989 57.5462 60.3214L57.5481 60.3233ZM56.9224 58.651C57.9025 58.5642 59.1244 58.3538 59.3643 58.2283C59.4418 58.1896 59.5083 58.0456 59.5378 57.8813L59.6246 57.3719L59.6726 57.1319L59.4326 57.1799C58.3658 57.4014 57.5573 57.4679 55.9423 57.4679C54.366 57.4679 54.1832 57.4586 53.7698 57.3147C53.6166 57.2482 53.4431 57.2095 53.2696 57.1984C53.2031 57.2371 53.1921 57.7853 53.2511 58.1693C53.2899 58.4 53.3287 58.4387 53.5594 58.5052C54.2903 58.7064 55.5214 58.7544 56.9242 58.6399L56.9224 58.651ZM39.0812 49.9796C41.5416 49.269 44.7625 47.1814 47.3964 44.5678C48.2528 43.7114 48.358 43.5969 48.4724 43.213L48.6256 42.722C48.6441 42.6833 48.4909 42.6168 48.2897 42.5688C47.7618 42.4433 47.3576 42.1369 47.3576 41.8582C47.3576 41.6939 47.2616 41.5315 46.9829 41.2325C46.5307 40.7231 46.4163 40.5016 46.3683 40.0124L46.3295 39.6175L45.7905 39.2335C45.4823 39.012 44.4062 38.4159 43.2618 37.84C42.3962 37.4173 41.5416 36.9559 40.7055 36.4557C39.7438 35.8115 39.0996 35.0418 38.7342 34.13C38.6677 33.9473 38.581 33.7941 38.5515 33.7941C38.4739 33.7941 36.3107 35.8798 35.3878 36.8599C33.1101 39.2631 31.5431 41.3488 30.5519 43.2813C30.3027 43.7612 30.0332 44.3297 29.9557 44.5401L29.8117 44.924L29.9852 45.5682C30.0905 45.9152 30.312 46.4819 30.4855 46.8178C31.0909 48.0102 31.8126 48.73 33.0049 49.317C34.284 49.9519 35.4173 50.1734 37.3111 50.1439C38.33 50.1346 38.629 50.1051 39.0793 49.9704L39.0812 49.9796ZM19.6619 41.5481C21.2769 40.1158 23.5066 38.5488 26.2383 36.9245C28.0269 35.8576 34.9393 32.3968 38.1214 30.983C38.6991 30.7227 39.2178 30.4828 39.275 30.4551C39.3322 30.4163 39.4965 30.0029 39.6497 29.5414C40.3234 27.4077 40.6593 26.985 41.8794 26.7063C42.0326 26.6676 42.0713 26.6196 42.0713 26.4664C42.0713 26.1877 42.2633 25.5435 42.4276 25.2555C42.5531 25.0341 42.5531 25.0248 42.446 25.0544C42.3796 25.0728 41.9753 25.1891 41.5527 25.3146C35.6887 27.0072 30.5648 29.2553 26.1424 32.0627C21.4227 35.0621 18.7021 38.6577 17.9139 42.9638L17.8567 43.2813L18.4344 42.7146C18.7427 42.3972 19.3001 41.8785 19.6656 41.561L19.6619 41.5481ZM63.1629 42.3658C63.6336 42.1258 64.3645 41.0202 64.634 40.1453C64.7115 39.8371 64.8647 39.5492 65.0862 39.3092C65.7968 38.5211 66.3838 37.0888 66.393 36.1086C66.393 34.5804 65.5273 33.9934 64.2685 34.6468C64.1042 34.7243 63.9713 34.7815 63.951 34.7631C63.8846 34.6966 64.239 34.3496 64.6727 34.0802C65.2394 33.7055 65.3464 33.484 65.3464 32.6866C65.3464 32.0129 65.1822 31.4758 64.7983 30.8796C64.6247 30.6193 64.5583 30.4477 64.586 30.3406L64.7595 29.6965C64.9994 28.84 64.9127 27.8599 64.538 27.2361C63.9806 26.2947 63.2976 25.8333 62.3452 25.7557L61.7878 25.717L62.1145 26.0824C63.0854 27.1308 63.5561 28.4469 63.3641 29.5728C63.2681 30.1505 63.1814 30.265 62.6239 30.4864L62.2972 30.6212L62.336 31.0642C62.4024 31.7859 62.2788 32.3138 61.8173 33.2846C61.5866 33.7756 61.4131 34.2167 61.4334 34.2647C61.4906 34.429 62.1256 34.7354 62.6258 34.8609L63.1168 34.9772L62.8085 35.0824C62.4043 35.2079 62.3175 35.3906 62.3175 36.0533C62.3175 36.6587 62.4043 36.9097 62.8454 37.5723C63.0466 37.8603 63.1814 38.1593 63.2017 38.331C63.2404 38.6004 63.2312 38.6189 63.0097 38.6964C62.7605 38.7629 62.5003 38.8127 62.24 38.8219C61.3356 38.8791 61.2691 38.9087 60.8649 39.2926C60.4995 39.6396 60.4902 39.6581 60.4902 40.042C60.4902 40.5699 60.6914 41.6386 60.8169 41.7825C60.9812 41.956 61.893 42.4083 62.2492 42.4747C62.5575 42.5522 62.8842 42.5135 63.1629 42.3695V42.3658ZM49.8475 41.6459C50.4345 41.1845 50.8959 40.7231 51.1543 40.3281C51.3186 40.0881 51.3278 40.0401 51.2503 39.8371C51.1156 39.5289 50.2315 38.7315 49.7405 38.4915C49.4138 38.3476 49.0668 38.2424 48.7124 38.1944L48.107 38.1168L47.7323 37.6462C46.9534 36.6845 46.5215 35.9351 45.905 34.4825C45.366 33.2514 44.8953 32.5316 44.146 31.8191C43.8377 31.5311 43.6181 31.2912 43.6365 31.2912C43.6753 31.2912 44.0408 31.4739 44.4634 31.6954C45.1648 32.0701 45.2516 32.0996 45.5691 32.0517C46.7134 31.9169 47.7231 30.6009 48.0885 28.7551C48.1937 28.2365 48.406 27.7067 48.6275 27.3892C48.6367 27.38 49.0797 27.668 49.5984 28.0426C50.9162 28.9748 51.2042 29.1187 51.9536 29.1483C52.4445 29.1667 52.7232 29.1298 53.6074 28.9175C55.4919 28.4561 57.5296 28.2734 58.77 28.4376C59.4714 28.5336 60.481 28.8419 61.2304 29.1963C61.9705 29.5433 62.1145 29.5617 62.3545 29.3495C62.5556 29.1759 62.5556 29.1483 62.5556 28.5041C62.5464 27.5517 62.1994 26.5236 61.6715 25.9089C61.402 25.5915 60.6434 25.0728 59.8922 24.6778C59.6227 24.5338 59.3532 24.3899 59.0948 24.2459C58.7386 24.0336 58.3362 24.0632 57.2398 24.3511C55.9699 24.6778 55.634 24.6778 54.1832 24.3031C52.9521 23.9949 52.8764 23.9857 51.6638 24.1776C51.0196 24.2736 49.4046 24.2164 48.8656 24.0724C48.5961 23.9949 48.3266 23.9192 48.0682 23.8232C47.5976 23.6405 46.7799 23.611 46.0397 23.7457C44.5687 24.006 43.4538 24.8033 43.0496 25.8886C42.8373 26.4368 42.8669 26.6971 43.1456 26.8687C43.5885 27.1475 44.1737 27.9079 44.1737 28.2051C44.1737 28.2235 44.0297 28.0999 43.8654 27.9264C43.452 27.4945 43.0773 27.3007 42.6343 27.3007C42.0473 27.3191 41.5194 27.6661 41.2795 28.194C41.154 28.5299 41.0395 28.8769 40.9528 29.2332C40.6833 30.2133 40.4434 30.7338 39.9339 31.4259C39.4817 32.0517 39.4153 32.3304 39.5777 33.0318C39.9819 34.8 40.6833 35.5125 43.6144 37.1755C45.1519 38.0504 45.9401 38.5414 46.5178 38.9733C46.9608 39.3 46.97 39.3203 46.9312 39.5695C46.8445 40.1472 47.2099 40.7711 47.9316 41.2805C48.1144 41.406 48.2288 41.5407 48.2288 41.6367C48.2288 41.8102 48.7198 42.0502 49.0742 42.0502C49.2754 42.0502 49.4304 41.9634 49.8438 41.6459H49.8475ZM61.7011 38.4048C62.8159 38.4435 62.8731 38.3568 62.2788 37.6646C61.6531 36.9429 61.4814 36.3578 61.7121 35.7137L61.8081 35.4645L61.4131 35.2725C61.2784 35.2061 61.1436 35.1378 61.0089 35.0898C60.9424 35.35 60.8742 35.5992 60.8169 35.8595C60.673 36.4464 60.4995 37.9655 60.4902 38.6097C60.4902 38.6669 60.5862 38.6484 60.7505 38.5432C60.9812 38.4085 61.0975 38.39 61.7029 38.4085L61.7011 38.4048ZM57.9615 38.3476C58.6352 38.3088 59.3274 38.2608 59.5101 38.2313L59.8461 38.1833L59.8848 37.0777C59.942 35.5014 60.1728 34.5693 60.8557 33.0779C61.3356 32.0203 61.5479 31.0974 61.4426 30.4052C61.4039 30.1081 61.3854 30.0878 60.9812 29.9143C60.2411 29.6171 59.4714 29.4141 58.6832 29.2885C57.9246 29.1833 55.6931 29.2406 54.857 29.4048C54.5099 29.462 53.8769 29.5968 53.4542 29.702C52.4058 29.9419 51.8484 29.9143 51.051 29.5673C50.2628 29.2202 49.7626 28.9046 49.292 28.4616C48.9173 28.1146 48.8785 28.0962 48.7825 28.2125C48.705 28.2992 48.6663 28.5595 48.6386 29.1169C48.609 29.9733 48.4743 30.4237 48.0996 31.0291C48.0128 31.1546 47.9464 31.2894 47.8873 31.4241C47.8873 31.4536 48.1753 31.7896 48.5315 32.155C49.7626 33.4341 50.368 33.7608 51.3389 33.6925C51.6564 33.663 51.8779 33.6741 51.8779 33.711C51.8779 33.7885 51.2522 34.2776 50.9938 34.4124C50.8683 34.4788 50.8406 34.5471 50.859 34.6911L51.0122 35.7007C51.099 36.2785 51.1654 36.5461 51.2522 36.6236C51.4829 36.8156 52.6753 37.4321 53.4246 37.7385C54.4047 38.1335 54.9437 38.2774 55.6931 38.3439C56.616 38.4214 56.6344 38.4214 57.9615 38.3439V38.3476ZM50.0118 37.2899C50.0303 37.2604 49.9638 36.703 49.8383 36.0588C49.6851 35.1839 49.5984 34.8664 49.5024 34.7797C49.4359 34.7225 49.0797 34.4715 48.7235 34.213C48.2528 33.8771 47.8098 33.5024 47.3964 33.1074L46.7337 32.454L46.3775 32.6368L46.0028 32.838C46.0323 32.9911 46.0896 33.1351 46.156 33.2699C46.2612 33.5006 46.4735 34.0672 46.6267 34.5287C47.0309 35.7303 47.3484 36.308 48.1457 37.3545L48.4429 37.7495L49.0096 37.8363C49.327 37.8843 49.6445 37.9526 49.7313 37.9803C49.866 38.0375 49.8845 38.0098 49.9232 37.7015C49.9417 37.5668 49.9712 37.4228 50.01 37.2881L50.0118 37.2899ZM62.192 25.3312C62.683 25.2832 62.7698 25.2149 62.5575 24.9953C62.4227 24.8605 62.1145 24.8513 61.8653 24.9658C61.7011 25.0433 61.6641 25.023 61.4039 24.7443C61.1344 24.4471 61.1159 24.436 60.7782 24.4748C60.4699 24.5135 60.4219 24.5043 60.3832 24.3788C60.2577 24.1665 60.1137 23.9838 59.9402 23.8214C59.7187 23.5722 59.4492 23.3784 59.1428 23.2547C58.5466 23.024 58.2107 23.0535 57.6422 23.371C55.9976 24.2644 56.0659 24.2551 54.4786 23.8509C52.9983 23.4762 51.8927 23.0923 51.5364 22.8505C51.2393 22.6493 50.6043 22.4278 50.0746 22.3595C49.6796 22.3023 49.4304 22.3891 49.0557 22.6955L48.8545 22.8597L49.0373 23.1772C49.2864 23.6202 49.2587 23.6479 48.8841 23.3212C48.4798 22.9852 47.9999 22.7545 47.6917 22.7435C47.4702 22.7435 46.8168 23.0314 46.7393 23.1569C46.7097 23.1957 46.9128 23.2437 47.1823 23.2621C47.461 23.2916 47.8449 23.3876 48.1051 23.4928C48.7788 23.7808 49.124 23.8768 49.7386 23.9358C50.4123 24.0023 51.6324 23.9266 51.7764 23.8103C51.8539 23.7439 52.0643 23.7328 52.5073 23.7715C53.0942 23.8103 53.3342 23.8675 54.7277 24.2422C55.5362 24.4637 56.1028 24.4434 57.0645 24.185C57.5075 24.0595 58.0649 23.9358 58.2956 23.9063C58.6906 23.8675 58.7663 23.8878 59.3828 24.1665C60.3629 24.6095 60.8834 24.8882 61.1713 25.1466C61.4593 25.3958 61.498 25.3958 62.1902 25.3386L62.192 25.3312ZM56.7119 23.6497L57.2989 23.3415L57.2804 22.7453C57.2712 22.3318 57.2509 21.9276 57.2325 21.5252L57.1845 20.9106L56.5975 21.3628C56.2505 21.6323 55.9146 21.8335 55.7706 21.863C55.3479 21.9405 53.2622 21.863 53.0684 21.7578C52.8082 21.5659 52.5682 21.3536 52.3467 21.1229L51.8077 20.5747L51.7985 20.9014C51.7985 21.0749 51.7801 21.372 51.7413 21.5548C51.6933 21.9018 51.6933 21.911 52.068 22.3817C52.2692 22.6419 52.4335 22.8727 52.4335 22.9003C52.4335 23.0831 55.2113 23.9487 55.8371 23.958C56.0382 23.958 56.2893 23.8712 56.7119 23.6497ZM55.5971 21.4662C56.2893 21.3314 56.6252 20.8312 56.8854 19.5632C57.1549 18.1973 57.2897 16.0544 57.1642 15.1407C57.0479 14.3138 56.125 13.9484 54.366 14.0056C53.2696 14.0444 52.8174 14.1496 52.4427 14.467C52.212 14.659 52.212 14.6793 52.1068 15.5911C51.9148 17.3409 52.2027 19.8308 52.7029 20.7629C52.9429 21.2152 53.1552 21.3776 53.5963 21.4551C54.0965 21.5419 55.1634 21.5419 55.5953 21.4643L55.5971 21.4662Z" fill="white"/>
</g>
<defs>
<filter id="filter0_d_128_1680" x="0" y="0.165771" width="84" height="92.9309" filterUnits="userSpaceOnUse" color-interpolation-filters="sRGB">
<feFlood flood-opacity="0" result="BackgroundImageFix"/>
<feColorMatrix in="SourceAlpha" type="matrix" values="0 0 0 0 0 0 0 0 0 0 0 0 0 0 0 0 0 0 127 0" result="hardAlpha"/>
<feOffset dy="4"/>
<feGaussianBlur stdDeviation="8.5"/>
<feComposite in2="hardAlpha" operator="out"/>
<feColorMatrix type="matrix" values="0 0 0 0 0 0 0 0 0 0 0 0 0 0 0 0 0 0 0.1 0"/>
<feBlend mode="normal" in2="BackgroundImageFix" result="effect1_dropShadow_128_1680"/>
<feBlend mode="normal" in="SourceGraphic" in2="effect1_dropShadow_128_1680" result="shape"/>
</filter>
</defs>
</svg>
