<svg width="84" height="107" viewBox="0 0 84 107" fill="none" xmlns="http://www.w3.org/2000/svg">
<g filter="url(#filter0_d_128_1678)">
<path fill-rule="evenodd" clip-rule="evenodd" d="M19.125 15.1702C19.5689 14.1627 20.566 13.5125 21.6669 13.5125H64.2222C65.7561 13.5125 67 14.7561 67 16.2902V38.5275C67 40.0617 65.7561 41.3053 64.2222 41.3053H48.3067L64.3822 58.8746C65.1256 59.687 65.3189 60.8617 64.875 61.8694C64.4311 62.8771 63.4344 63.5275 62.3333 63.5275H44.7778V82.972C44.7778 84.0953 44.101 85.1081 43.063 85.5381C42.025 85.9681 40.8303 85.7309 40.0358 84.9364L17.8136 62.7139C17.2927 62.193 17 61.4865 17 60.7498V38.5275C17 36.9934 18.2437 35.7498 19.7778 35.7498H35.6962L19.6169 18.1647C18.874 17.3522 18.6811 16.1776 19.125 15.1702ZM43.224 35.7498L27.9708 19.068H61.4444V35.7498H43.224ZM40.7766 41.3053H22.5556V57.972H42H56.0261L40.7766 41.3053ZM26.4839 63.5275L39.2222 76.2659V63.5275H26.4839Z" fill="white"/>
</g>
<defs>
<filter id="filter0_d_128_1678" x="0" y="0.512451" width="84" height="106.237" filterUnits="userSpaceOnUse" color-interpolation-filters="sRGB">
<feFlood flood-opacity="0" result="BackgroundImageFix"/>
<feColorMatrix in="SourceAlpha" type="matrix" values="0 0 0 0 0 0 0 0 0 0 0 0 0 0 0 0 0 0 127 0" result="hardAlpha"/>
<feOffset dy="4"/>
<feGaussianBlur stdDeviation="8.5"/>
<feComposite in2="hardAlpha" operator="out"/>
<feColorMatrix type="matrix" values="0 0 0 0 0 0 0 0 0 0 0 0 0 0 0 0 0 0 0.1 0"/>
<feBlend mode="normal" in2="BackgroundImageFix" result="effect1_dropShadow_128_1678"/>
<feBlend mode="normal" in="SourceGraphic" in2="effect1_dropShadow_128_1678" result="shape"/>
</filter>
</defs>
</svg>
